<svg width="28" height="28" viewBox="0 0 28 28" fill="none" xmlns="http://www.w3.org/2000/svg">
<path d="M12.7702 5.95995H4.65276C4.03765 5.95995 3.44774 6.2043 3.01279 6.63925C2.57785 7.07419 2.3335 7.66411 2.3335 8.27922V24.5141C2.3335 25.1292 2.57785 25.7191 3.01279 26.154C3.44774 26.589 4.03765 26.8333 4.65276 26.8333H20.8876C21.5027 26.8333 22.0926 26.589 22.5276 26.154C22.9625 25.7191 23.2069 25.1292 23.2069 24.5141V16.3966M21.4674 4.2205C21.9288 3.75917 22.5545 3.5 23.2069 3.5C23.8593 3.5 24.485 3.75917 24.9463 4.2205C25.4077 4.68183 25.6668 5.30753 25.6668 5.95995C25.6668 6.61237 25.4077 7.23807 24.9463 7.6994L13.9298 18.7159L9.29129 19.8755L10.4509 15.237L21.4674 4.2205Z" stroke="white" stroke-width="2" stroke-linecap="round" stroke-linejoin="round"/>
</svg>
